# xmcd CD database file
#
# Track frame offsets:
#	150
#	20332
#	39315
#	59692
#	77030
#	99457
#	117374
#	138088
#	160430
#	176477
#	196129
#	213172
#	227095
#	254144
#	276319
#
# Disc length: 3891 seconds
#
# Revision: 2
# Processed by: cddbd v1.5.2PL0 Copyright (c) Steve Scherf et al.
# Submitted via: CDex 1.70beta2
#
DISCID=d10f310f
DTITLE=Steven Seagal - Songs From The Crystal Cave
DYEAR=2004
DGENRE=Blues
TTITLE0=Better Man
TTITLE1=Music
TTITLE2=Route 23
TTITLE3=Girl It's All Right
TTITLE4=Don't You Cry
TTITLE5=My God
TTITLE6=Lollipop
TTITLE7=Not For Sale
TTITLE8=Dance
TTITLE9=Jealousy
TTITLE10=War
TTITLE11=Strut
TTITLE12=Goree
TTITLE13=The Light
TTITLE14=Red Rooster (Bonus Track)
EXTD=YEAR: 2004
EXTT0=
EXTT1=
EXTT2=
EXTT3=
EXTT4=
EXTT5=
EXTT6=
EXTT7=
EXTT8=
EXTT9=
EXTT10=
EXTT11=
EXTT12=
EXTT13=
EXTT14=
PLAYORDER=
